<svg viewBox="0 0 1616.59 700" xmlns="http://www.w3.org/2000/svg" xmlns:xlink="http://www.w3.org/1999/xlink" id="Layer_1" overflow="hidden"><defs/><path d="M1055.52 506.65 1061.65 493.1 1047.9 458.96 1052.68 458.96 1063.91 487.1 1075.92 458.96 1080.7 458.96 1060.24 506.66 1055.53 506.66Z" stroke-width="0" fill="#132C53"/><path d="M1088.63 478.25C1089.02 485.29 1095.47 491.03 1102.31 491.03 1107.8 491.03 1113.02 487.87 1114.96 482.7L1119.74 482.7C1117.03 490.32 1109.93 495.09 1102.38 495.09 1092.38 495.09 1083.98 486.96 1083.98 476.63 1083.98 466.3 1092.44 458.04 1102.31 458.04 1112.9 458.04 1120.83 467.14 1120.83 476.89 1120.83 477.34 1120.77 477.79 1120.77 478.25L1088.63 478.25ZM1116.19 474.18C1114.9 467.08 1109.28 462.11 1102.31 462.11 1095.73 462.11 1089.85 466.89 1088.63 474.18L1116.19 474.18Z" stroke-width="0" fill="#132C53"/><path d="M1159.05 494.26 1159.05 488.06 1158.92 488.06C1156.02 492.45 1150.92 495.09 1145.17 495.09 1134.58 495.09 1126.19 487.09 1126.19 476.5 1126.19 465.91 1134.84 458.04 1145.17 458.04 1151.04 458.04 1156.08 460.69 1158.92 465.14L1159.05 465.14 1159.05 458.94 1163.57 458.94 1163.57 494.25 1159.05 494.25ZM1159.31 476.63C1159.31 468.76 1153.11 462.11 1145.11 462.11 1137.11 462.11 1130.72 468.31 1130.72 476.7 1130.72 485.09 1136.85 491.03 1145.18 491.03 1153.05 491.03 1159.32 484.58 1159.32 476.64Z" stroke-width="0" fill="#132C53"/><path d="M1171.76 494.26 1171.76 458.95 1176.28 458.95 1176.28 464.05 1176.41 464.05C1177.96 460.37 1180.67 458.37 1186.35 458.05L1186.35 462.83 1186.29 462.83C1179.77 463.48 1176.29 467.74 1176.29 473.42L1176.29 494.27 1171.77 494.27Z" stroke-width="0" fill="#132C53"/><path d="M1204.74 467.66C1204.48 464.24 1202.35 462.11 1199.45 462.11 1196.55 462.11 1194.09 464.37 1194.09 467.4 1194.09 469.98 1195.9 471.79 1200.22 473.21 1208.8 476.05 1210.48 479.47 1210.48 484.51 1210.48 490.96 1206.16 495.1 1199.38 495.1 1193.31 495.1 1188.54 490.78 1188.54 484.06L1188.54 483.8 1193.06 483.8C1193.12 488.51 1195.58 491.03 1199.39 491.03 1203.46 491.03 1205.97 488.77 1205.97 484.7 1205.97 481.28 1203.78 479.41 1199.71 477.92 1193.51 475.66 1189.58 473.92 1189.58 467.85 1189.58 462.17 1193.84 458.04 1199.65 458.04 1204.94 458.04 1209.27 462.04 1209.27 467.66L1204.75 467.66Z" stroke-width="0" fill="#132C53"/><path d="M1265.48 494.26 1265.48 488.06 1265.35 488.06C1262.45 492.45 1257.35 495.09 1251.6 495.09 1241.01 495.09 1232.62 487.09 1232.62 476.5 1232.62 465.91 1241.27 458.04 1251.6 458.04 1257.47 458.04 1262.51 460.69 1265.35 465.14L1265.48 465.14 1265.48 458.94 1270 458.94 1270 494.25 1265.48 494.25ZM1265.74 476.63C1265.74 468.76 1259.54 462.11 1251.54 462.11 1243.54 462.11 1237.15 468.31 1237.15 476.7 1237.15 485.09 1243.28 491.03 1251.61 491.03 1259.48 491.03 1265.75 484.58 1265.75 476.64Z" stroke-width="0" fill="#132C53"/><path d="M1304.53 494.26 1304.53 474.57C1304.53 466.63 1299.75 462.11 1293.56 462.11 1286.72 462.11 1282.52 467.34 1282.52 474.24L1282.52 494.25 1278 494.25 1278 446.49 1282.52 446.49 1282.52 463.46 1282.65 463.46C1284.91 460.04 1288.91 458.04 1293.49 458.04 1303.24 458.04 1309.05 464.75 1309.05 474.56L1309.05 494.25 1304.53 494.25Z" stroke-width="0" fill="#132C53"/><path d="M1320.47 478.25C1320.86 485.29 1327.31 491.03 1334.15 491.03 1339.64 491.03 1344.86 487.87 1346.8 482.7L1351.58 482.7C1348.87 490.32 1341.77 495.09 1334.22 495.09 1324.22 495.09 1315.82 486.96 1315.82 476.63 1315.82 466.3 1324.28 458.04 1334.15 458.04 1344.74 458.04 1352.67 467.14 1352.67 476.89 1352.67 477.34 1352.61 477.79 1352.61 478.25L1320.47 478.25ZM1348.03 474.18C1346.74 467.08 1341.12 462.11 1334.15 462.11 1327.57 462.11 1321.69 466.89 1320.47 474.18L1348.03 474.18Z" stroke-width="0" fill="#132C53"/><path d="M1390.88 494.26 1390.88 488.06 1390.75 488.06C1387.85 492.45 1382.75 495.09 1377 495.09 1366.41 495.09 1358.02 487.09 1358.02 476.5 1358.02 465.91 1366.67 458.04 1377 458.04 1382.87 458.04 1387.91 460.69 1390.75 465.14L1390.88 465.14 1390.88 458.94 1395.4 458.94 1395.4 494.25 1390.88 494.25ZM1391.14 476.63C1391.14 468.76 1384.94 462.11 1376.94 462.11 1368.94 462.11 1362.55 468.31 1362.55 476.7 1362.55 485.09 1368.68 491.03 1377.01 491.03 1384.88 491.03 1391.15 484.58 1391.15 476.64Z" stroke-width="0" fill="#132C53"/><path d="M1434.77 494.26 1434.77 488.06 1434.64 488.06C1431.54 492.64 1426.38 495.09 1420.89 495.09 1410.3 495.09 1401.91 487.09 1401.91 476.5 1401.91 465.91 1410.56 458.04 1420.89 458.04 1426.38 458.04 1431.6 460.62 1434.64 465.01L1434.77 465.01 1434.77 446.49 1439.29 446.49 1439.29 494.25 1434.77 494.25ZM1435.03 476.63C1435.03 468.76 1428.9 462.11 1420.83 462.11 1412.76 462.11 1406.44 468.37 1406.44 476.7 1406.44 485.03 1412.51 491.03 1420.9 491.03 1428.71 491.03 1435.04 484.64 1435.04 476.64Z" stroke-width="0" fill="#132C53"/><path d="M667.54 430.29C647.27 430.29 627.93 421.79 613.09 406.37 598.73 391.45 590.5 371.67 590.5 352.1 590.5 329.41 598.71 308.55 613.6 293.37 627.91 278.78 646.76 270.75 666.68 270.75 688.17 270.75 708.05 278.79 722.66 293.4 737.17 307.91 745.16 327.53 745.16 348.66 745.16 352.32 745.16 355.82 744.78 359.6L611.21 359.6 612.52 364.61C619.76 392.35 642.33 410.99 668.69 410.99 688.41 410.99 706.47 400.81 716.42 384.26L737.99 384.26C725.08 412.41 698.02 430.29 667.55 430.29ZM667.54 290.05C639.47 290.05 614.73 312.58 612.4 340.27L612.03 344.61 723.62 344.61 723.25 340.27C720.85 312.11 696.38 290.05 667.54 290.05Z" stroke-width="0" fill="#132C53"/><path d="M788.45 513.94 824.43 426.89 760.88 270.75 784.43 270.75 835.55 405.62 887.93 270.75 911.46 270.75 810.76 513.94 788.45 513.94Z" stroke-width="0" fill="#132C53"/><path d="M1191.41 430.15C1170.7 430.15 1150.93 421.81 1135.75 406.67 1120.86 391.82 1112.32 371.77 1112.32 351.66 1112.32 330.09 1120.65 309.75 1135.79 294.4 1150.81 279.16 1170.56 270.77 1191.41 270.77 1234.6 270.77 1271.1 307.26 1271.1 350.46 1271.1 371.64 1262.64 391.66 1247.28 406.83 1232.07 421.86 1212.23 430.14 1191.41 430.14ZM1191.41 276.67C1152.21 276.67 1120.32 310.18 1120.32 351.37 1120.32 392.56 1152.35 424.27 1191.71 424.27 1231.07 424.27 1263.11 391.46 1263.11 349.57 1263.11 307.68 1230.95 276.67 1191.41 276.67Z" stroke-width="0" fill="#132C53"/><path d="M1430.91 430.21 1430.91 342.93C1430.91 303.48 1407.25 276.98 1372.04 276.98 1336.83 276.98 1312.86 303.47 1312.86 341.39L1312.86 430.21 1304.48 430.21 1304.48 270.78 1312.86 270.78 1312.86 309.81C1312.86 309.81 1324.03 270.75 1371.73 270.75 1392.35 270.75 1409.52 277.57 1421.37 290.47 1433.09 303.22 1439.28 321.35 1439.28 342.93L1439.28 430.21 1430.9 430.21Z" stroke-width="0" fill="#132C53"/><path d="M1005.03 430.29C984.76 430.29 965.42 421.79 950.58 406.37 936.22 391.45 927.99 371.67 927.99 352.1 927.99 329.41 936.2 308.55 951.09 293.37 965.4 278.78 984.25 270.75 1004.17 270.75 1025.66 270.75 1045.54 278.79 1060.15 293.4 1074.66 307.91 1082.65 327.53 1082.65 348.66 1082.65 352.32 1082.65 355.82 1082.27 359.6L948.7 359.6 950.01 364.61C957.25 392.35 979.82 410.99 1006.18 410.99 1025.9 410.99 1043.96 400.81 1053.91 384.26L1075.48 384.26C1062.57 412.41 1035.5 430.29 1005.04 430.29ZM1005.03 290.05C976.96 290.05 952.22 312.58 949.89 340.27L949.53 344.61 1061.12 344.61 1060.75 340.27C1058.35 312.11 1033.88 290.05 1005.04 290.05Z" stroke-width="0" fill="#132C53"/><path d="M514.11 350 491.55 310.92 491.55 265.8 452.47 243.24 429.91 204.16 384.79 204.16 345.71 181.6 306.63 204.16 261.51 204.16 238.95 243.24 199.87 265.8 199.87 310.92 177.31 350 199.87 389.08 199.87 434.2 238.95 456.76 261.51 495.84 306.63 495.84 345.71 518.4 384.79 495.84 429.91 495.84 452.47 456.76 490.55 434.77 491.55 434.19 491.55 389.07 514.11 349.99ZM509.49 350 491.55 381.08 491.55 318.92 509.49 350ZM487.55 344.2 471.45 316.31 471.45 284.1 487.55 311.99 487.55 344.2ZM223.96 390.62 249.65 435.12 223.96 420.29 223.96 390.62ZM467.45 309.38 441.76 264.88 467.45 279.71 467.45 309.38ZM467.45 343.97 454.16 320.95 454.16 294.36 467.45 317.38 467.45 343.97ZM241.26 385.99 262.32 422.46 241.26 410.3 241.26 385.98ZM450.15 314.01 429.09 277.54 450.15 289.7 450.15 314.02ZM450.15 343.77 439.27 324.93 439.27 303.18 450.15 322.02 450.15 343.77ZM256.13 382 273.2 411.57 256.13 401.71 256.13 382ZM435.28 318 418.21 288.43 435.28 298.29 435.28 318ZM435.28 343.7 426.43 328.37 426.43 310.67 435.28 326 435.28 343.7ZM268.98 378.56 282.61 402.17 268.98 394.3 268.98 378.56ZM422.42 321.44 408.79 297.83 422.42 305.7 422.42 321.44ZM422.42 343.54 415.37 331.33 415.37 317.23 422.42 329.44 422.42 343.54ZM280.03 375.6 290.7 394.08 280.03 387.92 280.03 375.6ZM411.38 324.4 400.71 305.92 411.38 312.08 411.38 324.4ZM411.38 343.4 405.88 333.88 405.88 322.89 411.38 332.41 411.38 343.4ZM289.53 373.05 297.65 387.12 289.53 382.43 289.53 373.05ZM401.88 326.95 393.76 312.88 401.88 317.57 401.88 326.95ZM401.88 343.28 397.72 336.07 397.72 327.74 401.88 334.95 401.88 343.28ZM380.85 385.15 358.57 398.01 332.84 398.01 310.56 385.15 297.7 362.87 297.7 337.14 310.56 314.86 332.84 302 358.57 302 380.85 314.86 393.71 337.14 393.71 362.87 380.85 385.15ZM393.71 370.86 393.71 377.71 387.77 381.14 393.71 370.86ZM376.85 392.07 373.42 398.01 366.57 398.01 376.85 392.07ZM351.64 402.01 345.7 405.44 339.76 402.01 351.63 402.01ZM324.84 398.01 317.99 398.01 314.56 392.07 324.84 398.01ZM297.69 370.86 303.63 381.14 297.69 377.71 297.69 370.86ZM293.69 355.94 290.26 350 293.69 344.06 293.69 355.93ZM297.69 329.14 297.69 322.29 303.63 318.86 297.69 329.14ZM314.56 307.93 317.99 301.99 324.84 301.99 314.56 307.93ZM339.77 297.99 345.71 294.56 351.65 297.99 339.78 297.99ZM366.57 301.99 373.42 301.99 376.85 307.93 366.57 301.99ZM393.71 329.14 387.77 318.86 393.71 322.29 393.71 329.14ZM397.71 344.06 401.14 350 397.71 355.94 397.71 344.07ZM390.99 316.09 383.78 311.93 379.62 304.72 386.83 308.88 390.99 316.09ZM368.76 293.83 378.14 293.83 382.83 301.95 368.76 293.83ZM367.97 297.99 359.64 297.99 352.43 293.83 360.76 293.83 367.97 297.99ZM337.58 289.83 345.7 285.14 353.82 289.83 337.57 289.83ZM338.98 293.83 331.77 297.99 323.44 297.99 330.65 293.83 338.98 293.83ZM308.58 301.95 313.27 293.83 322.65 293.83 308.58 301.95ZM311.79 304.71 307.63 311.92 300.42 316.08 304.58 308.87 311.79 304.71ZM289.53 326.95 289.53 317.57 297.65 312.88 289.53 326.95ZM293.69 327.74 293.69 336.07 289.53 343.28 289.53 334.95 293.69 327.74ZM285.53 358.12 280.84 350 285.53 341.88 285.53 358.13ZM289.53 356.72 293.69 363.93 293.69 372.26 289.53 365.05 289.53 356.72ZM300.42 383.91 307.63 388.07 311.8 395.28 304.59 391.12 300.43 383.91ZM322.65 406.17 313.27 406.17 308.58 398.05 322.65 406.17ZM323.44 402.01 331.77 402.01 338.98 406.18 330.65 406.18 323.44 402.01ZM353.83 410.17 345.71 414.86 337.59 410.17 353.84 410.17ZM352.43 406.17 359.64 402 367.97 402 360.76 406.17 352.43 406.17ZM382.83 398.05 378.14 406.17 368.76 406.17 382.83 398.05ZM379.61 395.29 383.77 388.08 390.98 383.92 386.82 391.13 379.61 395.29ZM401.88 373.05 401.88 382.43 393.76 387.12 401.88 373.05ZM397.71 372.26 397.71 363.93 401.87 356.72 401.87 365.05 397.71 372.26ZM405.88 341.88 410.57 350 405.88 358.12 405.88 341.87ZM399.28 311.45 389.76 305.95 384.26 296.43 393.78 301.93 399.28 311.45ZM371.3 284.33 383.62 284.33 389.78 295 371.3 284.33ZM372.82 289.83 361.83 289.83 352.31 284.33 363.3 284.33 372.82 289.83ZM335.03 280.33 345.7 274.17 356.37 280.33 335.03 280.33ZM339.1 284.33 329.58 289.83 318.59 289.83 328.11 284.33 339.1 284.33ZM301.63 295 307.79 284.33 320.11 284.33 301.63 295ZM307.15 296.43 301.65 305.95 292.13 311.45 297.63 301.93 307.15 296.43ZM280.03 324.4 280.03 312.08 290.7 305.92 280.03 324.4ZM285.53 322.88 285.53 333.87 280.03 343.39 280.03 332.4 285.53 322.88ZM276.03 360.67 269.87 350 276.03 339.33 276.03 360.67ZM280.03 356.6 285.53 366.12 285.53 377.11 280.03 367.59 280.03 356.6ZM292.13 388.55 301.65 394.05 307.15 403.57 297.63 398.07 292.13 388.55ZM320.11 415.67 307.79 415.67 301.63 405 320.11 415.67ZM318.59 410.17 329.59 410.17 339.11 415.67 328.12 415.67 318.6 410.17ZM356.37 419.67 345.7 425.83 335.03 419.67 356.37 419.67ZM352.31 415.67 361.83 410.17 372.83 410.17 363.31 415.67 352.32 415.67ZM389.78 405 383.62 415.67 371.3 415.67 389.78 405ZM384.26 403.57 389.76 394.05 399.28 388.55 393.78 398.07 384.26 403.57ZM411.38 375.6 411.38 387.92 400.71 394.08 411.38 375.6ZM405.88 377.12 405.88 366.13 411.38 356.61 411.38 367.6 405.88 377.12ZM415.38 339.33 421.54 350 415.38 360.67 415.38 339.33ZM408.91 306.04 396.7 298.99 389.65 286.78 401.86 293.83 408.91 306.04ZM374.26 273.28 390 273.28 397.87 286.91 374.26 273.28ZM378.47 280.33 364.37 280.33 352.16 273.28 366.26 273.28 378.47 280.33ZM332.08 269.28 345.71 261.41 359.34 269.28 332.08 269.28ZM339.24 273.28 327.03 280.33 312.93 280.33 325.14 273.28 339.24 273.28ZM293.54 286.91 301.41 273.28 317.15 273.28 293.54 286.91ZM301.75 286.79 294.7 299 282.49 306.05 289.54 293.84 301.75 286.79ZM268.98 321.44 268.98 305.7 282.61 297.83 268.98 321.44ZM276.03 317.24 276.03 331.34 268.98 343.55 268.98 329.45 276.03 317.24ZM264.98 363.63 257.11 350 264.98 336.37 264.98 363.63ZM268.98 356.46 276.03 368.67 276.03 382.77 268.98 370.56 268.98 356.46ZM282.49 393.95 294.7 401 301.75 413.21 289.54 406.16 282.49 393.95ZM317.15 426.72 301.41 426.72 293.54 413.09 317.14 426.72ZM312.94 419.67 327.04 419.67 339.25 426.72 325.15 426.72 312.94 419.67ZM359.33 430.72 345.7 438.59 332.07 430.72 359.33 430.72ZM352.16 426.72 364.37 419.67 378.47 419.67 366.26 426.72 352.16 426.72ZM397.87 413.09 390 426.72 374.26 426.72 397.86 413.09ZM389.66 413.21 396.71 401 408.92 393.95 401.87 406.16 389.66 413.21ZM422.42 378.56 422.42 394.3 408.79 402.17 422.42 378.56ZM415.38 382.76 415.38 368.66 422.43 356.45 422.43 370.55 415.38 382.76ZM426.42 336.37 434.29 350 426.42 363.63 426.42 336.37ZM420.13 299.76 404.8 290.91 395.95 275.58 411.28 284.43 420.13 299.76ZM377.7 260.43 397.41 260.43 407.27 277.5 377.7 260.43ZM385.04 269.28 367.34 269.28 352.01 260.43 369.71 260.43 385.04 269.28ZM328.63 256.43 345.7 246.57 362.77 256.43 328.62 256.43ZM339.41 260.43 324.08 269.28 306.38 269.28 321.71 260.43 339.41 260.43ZM284.13 277.5 293.99 260.43 313.7 260.43 284.13 277.5ZM295.46 275.58 286.61 290.91 271.28 299.76 280.13 284.43 295.46 275.58ZM256.13 318 256.13 298.29 273.2 288.43 256.13 318ZM264.98 310.67 264.98 328.37 256.13 343.7 256.13 326 264.98 310.67ZM252.13 367.07 242.27 350 252.13 332.93 252.13 367.08ZM256.13 356.3 264.98 371.63 264.98 389.33 256.13 374 256.13 356.3ZM271.28 400.24 286.61 409.09 295.46 424.42 280.13 415.57 271.28 400.24ZM313.7 439.57 293.99 439.57 284.13 422.5 313.7 439.57ZM306.37 430.72 324.07 430.72 339.4 439.57 321.7 439.57 306.37 430.72ZM362.78 443.57 345.71 453.43 328.64 443.57 362.78 443.57ZM352 439.57 367.33 430.72 385.03 430.72 369.7 439.57 352 439.57ZM407.27 422.5 397.41 439.57 377.7 439.57 407.27 422.5ZM395.94 424.42 404.79 409.09 420.12 400.24 411.27 415.57 395.94 424.42ZM435.28 382 435.28 401.71 418.21 411.57 435.28 382ZM426.42 389.33 426.42 371.63 435.27 356.3 435.27 374 426.42 389.33ZM439.28 332.93 449.14 350 439.28 367.07 439.28 332.92ZM433.04 292.38 414.2 281.5 403.32 262.66 422.16 273.54 433.04 292.38ZM381.69 245.55 406.01 245.55 418.17 266.61 381.7 245.55ZM392.53 256.43 370.78 256.43 351.94 245.55 373.69 245.55 392.53 256.43ZM324.65 241.55 345.71 229.39 366.77 241.55 324.65 241.55ZM339.47 245.55 320.63 256.43 298.88 256.43 317.72 245.55 339.47 245.55ZM273.24 266.61 285.4 245.55 309.72 245.55 273.24 266.61ZM288.08 262.66 277.2 281.5 258.36 292.38 269.24 273.54 288.08 262.66ZM241.26 314.01 241.26 289.69 262.32 277.53 241.26 314ZM252.13 303.17 252.13 324.92 241.25 343.76 241.25 322.01 252.13 303.17ZM237.26 371.06 225.1 350 237.26 328.94 237.26 371.06ZM241.26 356.23 252.14 375.07 252.14 396.82 241.26 377.98 241.26 356.23ZM258.37 407.62 277.21 418.5 288.09 437.34 269.25 426.46 258.37 407.62ZM309.72 454.45 285.4 454.45 273.24 433.39 309.71 454.45ZM298.88 443.57 320.63 443.57 339.47 454.45 317.72 454.45 298.88 443.57ZM366.76 458.45 345.7 470.61 324.64 458.45 366.76 458.45ZM351.94 454.45 370.78 443.57 392.53 443.57 373.69 454.45 351.94 454.45ZM418.16 433.39 406 454.45 381.68 454.45 418.15 433.39ZM403.33 437.34 414.21 418.5 433.05 407.62 422.17 426.46 403.33 437.34ZM450.15 385.99 450.15 410.31 429.09 422.47 450.15 386ZM439.28 396.83 439.28 375.08 450.16 356.24 450.16 377.99 439.28 396.83ZM454.15 328.94 466.31 350 454.15 371.06 454.15 328.94ZM448.12 283.9 425.1 270.61 411.81 247.59 434.83 260.88 448.12 283.9ZM386.32 228.26 415.99 228.26 430.82 253.95 386.32 228.26ZM401.35 241.55 374.76 241.55 351.74 228.26 378.33 228.26 401.36 241.55ZM320.01 224.26 345.7 209.43 371.39 224.26 320.01 224.26ZM339.67 228.26 316.65 241.55 290.06 241.55 313.09 228.26 339.68 228.26ZM260.58 253.95 275.41 228.26 305.08 228.26 260.58 253.95ZM279.61 247.59 266.32 270.61 243.3 283.9 256.59 260.88 279.61 247.59ZM223.96 309.38 223.96 279.71 249.65 264.88 223.96 309.38ZM237.26 294.35 237.26 320.94 223.97 343.97 223.97 317.38 237.26 294.35ZM219.96 375.69 205.13 350 219.96 324.31 219.96 375.69ZM223.96 356.03 237.25 379.06 237.25 405.65 223.96 382.62 223.96 356.03ZM243.29 416.1 266.31 429.39 279.6 452.42 256.58 439.13 243.29 416.1ZM305.08 471.74 275.41 471.74 260.58 446.05 305.08 471.74ZM290.06 458.45 316.65 458.45 339.68 471.74 313.09 471.74 290.06 458.45ZM371.4 475.74 345.71 490.57 320.02 475.74 371.4 475.74ZM351.74 471.74 374.77 458.45 401.36 458.45 378.33 471.74 351.74 471.74ZM430.82 446.05 415.99 471.74 386.32 471.74 430.82 446.05ZM411.8 452.41 425.09 429.39 448.11 416.1 434.82 439.12 411.8 452.41ZM467.45 390.62 467.45 420.29 441.76 435.12 467.45 390.62ZM454.15 405.65 454.15 379.06 467.44 356.04 467.44 382.63 454.15 405.65ZM471.45 324.31 486.28 350 471.45 375.69 471.45 324.31ZM437.75 257.95 421.65 230.06 449.54 246.16 465.64 274.05 437.75 257.95ZM379.4 224.26 351.51 208.16 383.72 208.16 411.61 224.26 379.4 224.26ZM312.01 224.26 279.8 224.26 307.69 208.16 339.9 208.16 312.01 224.26ZM253.65 257.95 225.76 274.05 241.86 246.16 269.75 230.06 253.65 257.95ZM219.96 316.31 203.86 344.2 203.86 311.99 219.96 284.1 219.96 316.31ZM203.86 355.8 219.96 383.69 219.96 415.9 203.86 388.01 203.86 355.8ZM253.65 442.05 269.75 469.94 241.86 453.84 225.76 425.95 253.65 442.05ZM312.01 475.74 339.9 491.84 307.69 491.84 279.8 475.74 312.01 475.74ZM379.4 475.74 411.61 475.74 383.72 491.84 351.51 491.84 379.4 475.74ZM437.75 442.05 465.64 425.95 449.54 453.84 421.65 469.94 437.75 442.05ZM471.45 383.69 487.55 355.8 487.55 388.01 471.45 415.9 471.45 383.69ZM487.55 268.11 487.55 304 456.47 250.17 487.55 268.11ZM427.6 208.16 445.54 239.24 391.71 208.16 427.6 208.16ZM345.7 186.21 376.78 204.15 314.62 204.15 345.7 186.21ZM263.81 208.16 299.7 208.16 245.87 239.24 263.81 208.16ZM203.86 268.11 234.94 250.17 203.86 304 203.86 268.11ZM181.92 350 199.86 318.92 199.86 381.08 181.92 350ZM203.86 431.89 203.86 396 234.94 449.83 203.86 431.89ZM263.81 491.84 245.87 460.76 299.7 491.84 263.81 491.84ZM345.7 513.79 314.62 495.85 376.78 495.85 345.7 513.79ZM427.6 491.84 391.71 491.84 445.54 460.76 427.6 491.84ZM487.55 431.89 456.47 449.83 487.55 396 487.55 431.89Z" stroke-width="0" fill="#132C53"/></svg>